<?xml version="1.0" encoding="iso-8859-1"?>
<!-- Generator: Adobe Illustrator 19.0.0, SVG Export Plug-In . SVG Version: 6.00 Build 0)  -->
<svg version="1.1" id="Capa_1" xmlns="http://www.w3.org/2000/svg" xmlns:xlink="http://www.w3.org/1999/xlink" x="0px" y="0px"
	 viewBox="0 0 512.002 512.002" style="enable-background:new 0 0 512.002 512.002;" xml:space="preserve">
<g>
	<g transform="translate(1 1)">
		<path style="fill:#7FACFA;" d="M502.468,468.336v17.067c-0.028,9.414-7.653,17.039-17.067,17.067h-460.8
			c-9.414-0.028-17.039-7.652-17.067-17.067v-17.067l59.733-76.8v-42.667h375.467v42.667L502.468,468.336z"/>
		<path style="fill:#E3E7F2;" d="M476.868,468.336v17.067c-0.028,9.414-7.652,17.039-17.067,17.067h-435.2
			c-9.414-0.028-17.039-7.652-17.067-17.067v-17.067l59.733-76.8v-42.667h349.867v42.667L476.868,468.336z"/>
		<path style="fill:#7FACFA;" d="M7.534,468.336h494.933v17.067c0,9.426-7.641,17.067-17.067,17.067h-460.8
			c-9.426,0-17.067-7.641-17.067-17.067V468.336z"/>
		<path style="fill:#E3E7F2;" d="M7.534,468.336h469.333v17.067c0,9.426-7.641,17.067-17.067,17.067h-435.2
			c-9.426,0-17.067-7.641-17.067-17.067V468.336z"/>
		<path style="fill:#7FACFA;" d="M297.668,127.002h128c9.414,0.028,17.039,7.652,17.067,17.067v247.467H67.268V144.069
			c0.028-9.414,7.652-17.039,17.067-17.067h128"/>
		<path style="fill:#E3E7F2;" d="M281.959,127.002h119.273c9.087,0.359,16.186,7.977,15.903,17.067v247.467H67.268V144.069
			c-0.283-9.09,6.816-16.708,15.903-17.067h119.273"/>
		
			<linearGradient id="SVGID_1_" gradientUnits="userSpaceOnUse" x1="-49.6756" y1="651.1279" x2="-49.0612" y2="649.626" gradientTransform="matrix(375.4667 0 0 -153.6 18791.1875 100246.4766)">
			<stop  offset="0" style="stop-color:#D4E1F4"/>
			<stop  offset="0.1717" style="stop-color:#D4E1F4"/>
			<stop  offset="0.2" style="stop-color:#D4E1F4"/>
			<stop  offset="0.2001" style="stop-color:#DAE4F4"/>
			<stop  offset="0.2007" style="stop-color:#EBEBF4"/>
			<stop  offset="0.2014" style="stop-color:#F6F1F4"/>
			<stop  offset="0.2023" style="stop-color:#FDF4F4"/>
			<stop  offset="0.205" style="stop-color:#FFF5F4"/>
			<stop  offset="0.2522" style="stop-color:#FFF5F4"/>
			<stop  offset="0.26" style="stop-color:#FFF5F4"/>
			<stop  offset="0.26" style="stop-color:#D4E1F4"/>
			<stop  offset="0.3974" style="stop-color:#D4E1F4"/>
			<stop  offset="0.42" style="stop-color:#D4E1F4"/>
			<stop  offset="0.4201" style="stop-color:#DAE4F4"/>
			<stop  offset="0.4207" style="stop-color:#EBEBF4"/>
			<stop  offset="0.4214" style="stop-color:#F6F1F4"/>
			<stop  offset="0.4223" style="stop-color:#FDF4F4"/>
			<stop  offset="0.425" style="stop-color:#FFF5F4"/>
			<stop  offset="0.4894" style="stop-color:#FFF5F4"/>
			<stop  offset="0.5" style="stop-color:#FFF5F4"/>
			<stop  offset="0.5" style="stop-color:#F9F2F4"/>
			<stop  offset="0.5001" style="stop-color:#E8EBF4"/>
			<stop  offset="0.5003" style="stop-color:#DDE5F4"/>
			<stop  offset="0.5005" style="stop-color:#D6E2F4"/>
			<stop  offset="0.501" style="stop-color:#D4E1F4"/>
			<stop  offset="0.7062" style="stop-color:#D4E1F4"/>
			<stop  offset="0.74" style="stop-color:#D4E1F4"/>
			<stop  offset="0.741" style="stop-color:#FFF5F4"/>
			<stop  offset="0.8346" style="stop-color:#FFF5F4"/>
			<stop  offset="0.85" style="stop-color:#FFF5F4"/>
			<stop  offset="0.851" style="stop-color:#D4E1F4"/>
		</linearGradient>
		<path style="fill:url(#SVGID_1_);" d="M442.734,323.269v68.267H67.268v-68.267c-0.003-9.054,3.593-17.737,9.995-24.139
			c6.402-6.402,15.085-9.997,24.139-9.995c3.297-0.003,6.576,0.486,9.728,1.451c-0.786-3.27-1.187-6.621-1.195-9.984
			c0.009-23.561,19.106-42.658,42.667-42.667c5.866,0.005,11.671,1.195,17.067,3.499h170.667c5.395-2.303,11.2-3.493,17.067-3.499
			c23.561,0.009,42.658,19.106,42.667,42.667c-0.008,3.363-0.409,6.714-1.195,9.984c3.152-0.965,6.431-1.454,9.728-1.451
			c9.053-0.003,17.737,3.593,24.139,9.995S442.737,314.215,442.734,323.269z"/>
		<rect x="212.334" y="83.533" style="fill:#7FACFA;" width="85.333" height="145.835"/>
		<rect x="212.334" y="83.533" style="fill:#E3E7F2;" width="59.733" height="145.835"/>
		<polygon style="fill:#A4C2F7;" points="212.334,169.669 212.334,272.069 169.668,314.736 169.668,220.869 		"/>
		<g>
			<polygon style="fill:#7FACFA;" points="297.668,272.069 280.601,306.202 229.401,306.202 212.334,272.069 			"/>
			<rect x="212.334" y="229.402" style="fill:#7FACFA;" width="85.333" height="42.667"/>
		</g>
		<g>
			<polygon style="fill:#D4E1F4;" points="272.068,272.069 255.001,306.202 229.401,306.202 212.334,272.069 			"/>
			<rect x="212.334" y="229.402" style="fill:#D4E1F4;" width="59.733" height="42.667"/>
		</g>
		<polygon style="fill:#A4C2F7;" points="340.334,220.869 340.334,314.736 297.668,272.069 297.668,169.669 		"/>
		<path style="fill:#E3E7F2;" d="M276.334,313.541c0,12.117-21.333,43.861-21.333,43.861s-21.333-31.744-21.333-43.861
			c-0.013-2.503,0.421-4.988,1.28-7.339h40.107C275.914,308.553,276.347,311.038,276.334,313.541z"/>
		<path style="fill:#7FACFA;" d="M297.668,84.336h-85.333c0-24.576,17.323-48.981,29.867-63.488c4.007-4.68,8.281-9.124,12.8-13.312
			C255.001,7.536,297.668,45.765,297.668,84.336z"/>
		<path style="fill:#E3E7F2;" d="M272.068,84.336h-59.733c0-24.576,17.323-48.981,29.867-63.488
			C254.745,35.354,272.068,59.76,272.068,84.336z"/>
	</g>
	<path style="fill:#FFFFFF;" d="M109.654,128.002c-9.044,0.415-16.077,8.018-15.787,17.067v247.467l-59.733,76.8v17.067
		c0.028,9.414,7.653,17.039,17.067,17.067h-25.6c-9.414-0.028-17.039-7.652-17.067-17.067v-17.067l59.733-76.8V145.069
		c-0.282-9.078,6.798-16.69,15.872-17.067H109.654z"/>
	<g>
		<polygon style="fill:#FFFFFF;" points="76.801,145.069 76.801,256.002 76.801,392.536 59.734,392.536 59.734,256.002 
			59.734,145.069 		"/>
		<g>
			<path style="fill:#428DFF;" d="M68.268,221.869c3.45-0.014,6.556-2.096,7.879-5.282s0.606-6.856-1.82-9.31l-1.279-1.025
				c-0.476-0.324-0.993-0.583-1.538-0.771c-0.484-0.245-1.003-0.417-1.538-0.508c-0.563-0.096-1.133-0.153-1.704-0.171
				c-2.259,0.031-4.423,0.915-6.059,2.475c-2.07,1.994-2.979,4.908-2.409,7.726c0.57,2.818,2.539,5.149,5.222,6.183
				C66.049,221.623,67.151,221.856,68.268,221.869z"/>
			<path style="fill:#428DFF;" d="M511.348,466.099c-0.06-0.144-0.161-0.257-0.228-0.396c-0.247-0.567-0.555-1.105-0.92-1.604
				l-57.933-74.486V145.069c-0.015-14.132-11.468-25.585-25.6-25.6H307.201V85.336c0-41.887-43.65-81.488-45.508-83.154
				c-3.237-2.908-8.146-2.908-11.383,0c-1.858,1.667-45.508,41.267-45.508,83.154v34.133H85.334
				c-14.132,0.015-25.585,11.468-25.6,25.6v34.133c0,4.713,3.821,8.533,8.533,8.533s8.533-3.821,8.533-8.533v-34.133
				c0.005-4.711,3.822-8.529,8.533-8.533h119.467v31.041l-40.692,48.83c-1.276,1.534-1.975,3.467-1.975,5.463v9.299
				c-14.868-2.61-30.127,1.51-41.66,11.248s-18.153,24.091-18.073,39.185c-9.262,0.032-18.257,3.107-25.6,8.752v-42.885
				c0-4.713-3.821-8.533-8.533-8.533s-8.533,3.821-8.533,8.533v142.143L1.801,464.098c-0.366,0.501-0.675,1.04-0.922,1.609
				c-0.066,0.138-0.166,0.248-0.224,0.39c-0.367,0.93-0.566,1.917-0.589,2.917c-0.004,0.113-0.065,0.208-0.065,0.322v17.067
				c0.015,14.132,11.468,25.585,25.6,25.6h460.8c14.132-0.015,25.585-11.468,25.6-25.6v-17.067c0-0.114-0.06-0.209-0.065-0.322
				C511.914,468.015,511.715,467.028,511.348,466.099z M426.668,136.536c4.711,0.005,8.529,3.822,8.533,8.533v145.285
				c-7.343-5.644-16.338-8.719-25.6-8.752c0.08-15.095-6.539-29.447-18.073-39.185c-11.534-9.738-26.793-13.858-41.66-11.248v-9.299
				c0-1.996-0.699-3.928-1.975-5.463l-40.692-48.83v-31.041H426.668z M221.868,238.936h68.267v25.6h-68.267V238.936z
				 M290.134,221.869h-68.267v-128h68.267V221.869z M268.635,315.736c-2.974,9.432-7.225,18.413-12.634,26.692
				c-5.412-8.278-9.664-17.259-12.635-26.692H268.635z M276.326,298.669h-40.65l-8.533-17.067h57.717L276.326,298.669z
				 M307.201,194.24l25.6,30.717v70.179l-25.6-25.6V194.24z M256.001,20.506c9.823,10.209,29.22,32.912,33.319,56.296h-66.637
				C226.781,53.418,246.178,30.716,256.001,20.506z M204.801,194.24v75.296l-25.6,25.6v-70.179L204.801,194.24z M102.401,298.669
				c2.475,0,4.935,0.371,7.3,1.1c9.897,2.928,17.068,11.514,18.183,21.775c0.525,4.683,4.745,8.055,9.429,7.533
				s8.058-4.741,7.538-9.425c-1.668-15.102-11.253-28.173-25.155-34.304c-0.147-1.243-0.223-2.494-0.229-3.746
				c0.02-18.843,15.29-34.113,34.133-34.133c2.883,0.039,5.75,0.44,8.533,1.192v67.075c0,3.451,2.079,6.563,5.267,7.883
				c3.189,1.321,6.859,0.59,9.299-1.85l34.292-34.296l11.775,23.546c0.753,1.485,1.926,2.717,3.373,3.542
				c0.035,13.692,17.441,40.654,22.777,48.599c1.585,2.359,4.241,3.775,7.083,3.775c2.842,0,5.498-1.415,7.083-3.775
				c5.336-7.946,22.741-34.907,22.777-48.599c1.447-0.825,2.62-2.057,3.373-3.542l11.772-23.544l34.295,34.294
				c2.44,2.441,6.11,3.171,9.299,1.85c3.189-1.321,5.268-4.432,5.268-7.883v-67.075c2.784-0.752,5.65-1.152,8.533-1.192
				c18.843,0.02,34.113,15.29,34.133,34.133c-0.005,1.253-0.082,2.505-0.229,3.749c-13.9,6.132-23.484,19.201-25.155,34.301
				c-0.521,4.682,2.851,8.901,7.533,9.425c2.255,0.277,4.526-0.366,6.301-1.783c1.775-1.418,2.904-3.49,3.133-5.75
				c1.125-10.284,8.324-18.881,18.25-21.796c2.344-0.717,4.782-1.081,7.233-1.079c14.132,0.015,25.585,11.468,25.6,25.6v59.733
				h-358.4v-59.733C76.817,310.137,88.269,298.684,102.401,298.669z M72.443,401.069h367.117l46.458,59.733H25.984L72.443,401.069z
				 M494.934,486.402c-0.005,4.711-3.822,8.529-8.533,8.533h-460.8c-4.711-0.005-8.529-3.822-8.533-8.533v-8.533h477.867V486.402z"
				/>
			<path style="fill:#428DFF;" d="M392.534,426.669H119.468c-4.713,0-8.533,3.821-8.533,8.533s3.821,8.533,8.533,8.533h273.067
				c4.713,0,8.533-3.82,8.533-8.533S397.247,426.669,392.534,426.669z"/>
			<path style="fill:#428DFF;" d="M85.334,426.669h-8.533c-4.713,0-8.533,3.821-8.533,8.533s3.82,8.533,8.533,8.533h8.533
				c4.713,0,8.533-3.82,8.533-8.533S90.047,426.669,85.334,426.669z"/>
			<path style="fill:#428DFF;" d="M435.201,426.669h-8.533c-4.713,0-8.533,3.821-8.533,8.533s3.82,8.533,8.533,8.533h8.533
				c4.713,0,8.533-3.82,8.533-8.533S439.914,426.669,435.201,426.669z"/>
			<path style="fill:#428DFF;" d="M247.468,128.002h17.067c4.713,0,8.533-3.821,8.533-8.533c0-4.713-3.82-8.533-8.533-8.533h-17.067
				c-4.713,0-8.533,3.821-8.533,8.533C238.934,124.182,242.755,128.002,247.468,128.002z"/>
			<path style="fill:#428DFF;" d="M247.468,162.136h17.067c4.713,0,8.533-3.82,8.533-8.533s-3.82-8.533-8.533-8.533h-17.067
				c-4.713,0-8.533,3.821-8.533,8.533S242.755,162.136,247.468,162.136z"/>
		</g>
	</g>
</g>
<g>
</g>
<g>
</g>
<g>
</g>
<g>
</g>
<g>
</g>
<g>
</g>
<g>
</g>
<g>
</g>
<g>
</g>
<g>
</g>
<g>
</g>
<g>
</g>
<g>
</g>
<g>
</g>
<g>
</g>
</svg>
