<?xml version="1.0" encoding="iso-8859-1"?>
<!-- Generator: Adobe Illustrator 19.0.0, SVG Export Plug-In . SVG Version: 6.00 Build 0)  -->
<svg version="1.1" id="Capa_1" xmlns="http://www.w3.org/2000/svg" xmlns:xlink="http://www.w3.org/1999/xlink" x="0px" y="0px"
	 viewBox="0 0 512.059 512.059" style="enable-background:new 0 0 512.059 512.059;" xml:space="preserve">
<g transform="translate(0 -1)">
	<g transform="translate(1 2)">
		<g>
			<path style="fill:#D4E1F4;" d="M291.723,422.014c3.214-1.028,5.498-3.884,5.794-7.245c0.145-2.022,0.213-4.053,0.213-6.11
				c0-2.057-0.068-4.087-0.213-6.11c-0.297-3.361-2.58-6.217-5.794-7.245l-8.909-2.97c-2.664-0.925-4.707-3.096-5.47-5.811
				c-1.481-4.904-3.451-9.647-5.879-14.157c-1.379-2.464-1.469-5.446-0.239-7.987l4.207-8.405c1.546-3.001,1.142-6.636-1.024-9.225
				c-1.331-1.525-2.722-3.012-4.173-4.463c-1.451-1.451-2.938-2.842-4.463-4.173c-2.59-2.164-6.223-2.567-9.225-1.024l-8.405,4.207
				c-2.543,1.225-5.522,1.136-7.987-0.239c-4.51-2.429-9.253-4.399-14.157-5.879c-2.715-0.763-4.886-2.806-5.811-5.47l-3.004-8.943
				c-1.028-3.214-3.884-5.498-7.245-5.794c-2.022-0.111-4.053-0.179-6.11-0.179c-2.057,0-4.087,0.068-6.11,0.213
				c-3.361,0.297-6.217,2.58-7.245,5.794l-2.97,8.909c-0.925,2.664-3.096,4.707-5.811,5.47c-4.904,1.481-9.647,3.451-14.157,5.879
				c-2.465,1.375-5.445,1.464-7.987,0.239l-8.405-4.207c-3.001-1.543-6.635-1.14-9.225,1.024c-1.53,1.331-3.018,2.722-4.463,4.173
				c-1.445,1.451-2.836,2.938-4.173,4.463c-2.166,2.589-2.57,6.224-1.024,9.225l4.207,8.405c1.23,2.542,1.14,5.524-0.239,7.987
				c-2.429,4.51-4.399,9.253-5.879,14.157c-0.763,2.715-2.806,4.886-5.47,5.811l-8.909,2.97c-3.214,1.028-5.498,3.884-5.794,7.245
				c-0.145,2.022-0.213,4.053-0.213,6.11c0,2.057,0.068,4.087,0.213,6.11c0.297,3.361,2.58,6.217,5.794,7.245l8.909,2.97
				c2.664,0.925,4.707,3.096,5.47,5.811c1.481,4.904,3.451,9.647,5.879,14.157c1.379,2.464,1.468,5.446,0.239,7.987l-4.207,8.405
				c-1.543,3.001-1.14,6.635,1.024,9.225c1.331,1.525,2.722,3.012,4.173,4.463c1.451,1.451,2.938,2.842,4.463,4.173
				c2.589,2.166,6.224,2.57,9.225,1.024l8.405-4.207c2.542-1.23,5.524-1.14,7.987,0.239c4.51,2.429,9.253,4.399,14.157,5.879
				c2.715,0.763,4.886,2.806,5.811,5.47l2.97,8.909c1.028,3.214,3.884,5.498,7.245,5.794c2.022,0.145,4.053,0.213,6.11,0.213
				c2.057,0,4.087-0.068,6.11-0.213c3.361-0.297,6.217-2.58,7.245-5.794l2.97-8.909c0.925-2.664,3.096-4.707,5.811-5.47
				c4.904-1.481,9.647-3.451,14.157-5.879c2.464-1.379,5.446-1.469,7.987-0.239l8.405,4.207c3.001,1.546,6.636,1.142,9.225-1.024
				c1.53-1.331,3.018-2.722,4.463-4.173c1.445-1.451,2.836-2.938,4.173-4.463c2.164-2.59,2.567-6.223,1.024-9.225l-4.207-8.405
				c-1.23-2.542-1.14-5.524,0.239-7.987c2.429-4.51,4.399-9.253,5.879-14.157c0.763-2.715,2.806-4.886,5.47-5.811L291.723,422.014z"
				/>
			<path style="fill:#D4E1F4;" d="M394.447,171.193c2.902-1.22,4.896-3.94,5.188-7.074c0.307-3.78,0.461-7.62,0.461-11.46
				c0-3.84-0.154-7.68-0.461-11.46c-0.292-3.135-2.286-5.854-5.188-7.074l-27.631-11.87c-2.225-0.978-3.922-2.864-4.659-5.18
				c-1.706-5.138-3.782-10.146-6.212-14.985c-1.112-2.159-1.242-4.692-0.358-6.955l11.162-27.955
				c1.192-2.913,0.683-6.245-1.323-8.67c-2.466-2.893-5.069-5.717-7.782-8.431c-2.714-2.714-5.538-5.316-8.431-7.782
				c-2.425-2.006-5.757-2.514-8.67-1.323l-28.006,11.162c-2.317,0.919-4.92,0.779-7.125-0.384c-3.726-1.933-7.565-3.643-11.494-5.12
				c-2.287-0.853-4.625-1.493-6.963-2.167l-13.389-31.223c-1.22-2.902-3.94-4.896-7.074-5.188c-3.78-0.307-7.62-0.461-11.46-0.461
				c-3.84,0-7.68,0.154-11.46,0.461c-3.135,0.292-5.854,2.286-7.074,5.188l-13.389,31.189c-2.338,0.674-4.676,1.348-6.963,2.167
				c-3.93,1.477-7.768,3.187-11.494,5.12c-2.205,1.163-4.808,1.303-7.125,0.384l-27.972-11.127c-2.913-1.192-6.245-0.683-8.67,1.323
				c-2.893,2.466-5.717,5.069-8.431,7.782c-2.714,2.714-5.316,5.538-7.782,8.431c-2.006,2.425-2.514,5.757-1.323,8.67l11.162,27.955
				c0.884,2.262,0.753,4.795-0.358,6.955c-2.43,4.838-4.507,9.846-6.212,14.985c-0.738,2.315-2.435,4.202-4.659,5.18l-27.665,11.87
				c-2.902,1.22-4.896,3.94-5.188,7.074c-0.307,3.78-0.461,7.62-0.461,11.46c0,3.84,0.154,7.68,0.461,11.46
				c0.292,3.135,2.286,5.854,5.188,7.074l27.631,11.87c2.225,0.978,3.922,2.864,4.659,5.18c1.704,5.136,3.781,10.142,6.212,14.976
				c1.112,2.162,1.243,4.698,0.358,6.963l-11.162,27.955c-1.192,2.913-0.683,6.245,1.323,8.67c2.466,2.893,5.069,5.717,7.782,8.431
				c2.714,2.714,5.538,5.316,8.431,7.782c2.425,2.006,5.757,2.514,8.67,1.323l27.955-11.162c2.265-0.884,4.801-0.754,6.963,0.358
				c4.834,2.432,9.84,4.508,14.976,6.212c2.315,0.738,4.202,2.435,5.18,4.659l11.87,27.665c1.22,2.902,3.94,4.896,7.074,5.188
				c3.814,0.307,7.654,0.461,11.494,0.461c3.84,0,7.68-0.154,11.46-0.461c3.135-0.292,5.854-2.286,7.074-5.188l11.87-27.631
				c0.978-2.225,2.864-3.922,5.18-4.659c5.136-1.704,10.142-3.78,14.976-6.212c2.162-1.112,4.698-1.243,6.963-0.358l27.955,11.162
				c2.913,1.192,6.245,0.683,8.67-1.323c2.893-2.466,5.717-5.069,8.431-7.782c2.714-2.714,5.316-5.538,7.782-8.431
				c2.006-2.425,2.514-5.757,1.323-8.67l-11.162-27.989c-0.884-2.265-0.754-4.801,0.358-6.963c2.432-4.834,4.508-9.84,6.212-14.976
				c0.738-2.315,2.435-4.202,4.659-5.18L394.447,171.193z"/>
		</g>
		<rect x="434.23" y="374.526" style="fill:#E3E7F2;" width="68.267" height="85.333"/>
		<rect x="434.23" y="374.526" style="fill:#D4E1F4;" width="42.667" height="85.333"/>
		<path style="fill:#A4C2F7;" d="M502.496,92.926v25.6H434.23v-25.6l21.333-53.333l4.864-12.203
			c1.287-3.257,4.434-5.397,7.936-5.397s6.649,2.14,7.936,5.397L502.496,92.926z"/>
		<polygon style="fill:#E3E7F2;" points="476.896,92.926 476.896,118.526 434.23,118.526 434.23,92.926 455.563,39.592 		"/>
		<path style="fill:#A4C2F7;" d="M16.096,7.592h51.2c4.713,0,8.533,3.821,8.533,8.533v477.867c0,4.713-3.821,8.533-8.533,8.533
			h-51.2c-4.713,0-8.533-3.821-8.533-8.533V16.126C7.563,11.413,11.383,7.592,16.096,7.592z"/>
		<path style="fill:#E3E7F2;" d="M16.096,7.592h25.6c4.713,0,8.533,3.821,8.533,8.533v477.867c0,4.713-3.821,8.533-8.533,8.533
			h-25.6c-4.713,0-8.533-3.821-8.533-8.533V16.126C7.563,11.413,11.383,7.592,16.096,7.592z"/>
		<rect x="434.23" y="92.926" style="fill:#A4C2F7;" width="68.267" height="307.2"/>
		<rect x="434.23" y="92.926" style="fill:#E3E7F2;" width="42.667" height="307.2"/>
		<path style="fill:#A4C2F7;" d="M502.496,442.792v25.6c0,18.851-15.282,34.133-34.133,34.133s-34.133-15.282-34.133-34.133v-25.6
			H502.496z"/>
		<path style="fill:#E3E7F2;" d="M476.896,442.792v25.6c0.15,8.467-2.006,16.815-6.238,24.149c-2.975,5.707-8.679,9.48-15.095,9.984
			c-11.785,0-21.333-15.275-21.333-34.133v-25.6H476.896z"/>
		<path style="fill:#7FABFA;" d="M331.83,152.659c-0.066,42.388-34.412,76.734-76.8,76.8c-4.291,0.019-8.576-0.352-12.8-1.109
			c-36.922-6.273-63.951-38.239-64-75.691c-0.092-20.384,8.028-39.946,22.528-54.272c7.861-7.924,17.354-14.039,27.819-17.92
			c4.442-1.555,9.01-2.726,13.653-3.499c4.224-0.757,8.509-1.129,12.8-1.109c9.017,0.01,17.964,1.569,26.453,4.608
			c10.465,3.881,19.958,9.996,27.819,17.92C323.802,112.713,331.922,132.275,331.83,152.659z"/>
		<path style="fill:#A4C2F7;" d="M306.23,152.659c-0.049,37.451-27.078,69.418-64,75.691c-36.922-6.273-63.951-38.239-64-75.691
			c-0.092-20.384,8.028-39.946,22.528-54.272c7.861-7.924,17.354-14.039,27.819-17.92c4.442-1.555,9.01-2.726,13.653-3.499
			c4.643,0.773,9.211,1.943,13.653,3.499c10.465,3.881,19.958,9.996,27.819,17.92C298.202,112.713,306.322,132.275,306.23,152.659z"
			/>
		<path style="fill:#D4E1F4;" d="M289.163,152.659c0.003,15.45-10.372,28.977-25.296,32.977c-14.924,4-30.673-2.523-38.398-15.904
			c-7.725-13.381-5.498-30.282,5.429-41.205c3.499-3.517,7.721-6.23,12.373-7.953c7.602-2.731,15.916-2.731,23.518,0
			c4.652,1.723,8.874,4.436,12.373,7.953C285.592,134.908,289.194,143.601,289.163,152.659z"/>
		<path style="fill:#7FABFA;" d="M246.496,408.659c0,23.564-19.103,42.667-42.667,42.667c-4.334-0.013-8.644-0.645-12.8-1.877
			c-17.783-5.632-29.868-22.136-29.868-40.789c0-18.654,12.085-35.157,29.868-40.789c4.156-1.232,8.466-1.864,12.8-1.877
			C227.394,365.992,246.496,385.095,246.496,408.659z"/>
		<g>
			<ellipse style="fill:#A4C2F7;" cx="191.03" cy="408.659" rx="29.867" ry="40.789"/>
			<path style="fill:#A4C2F7;" d="M488.075,56.83c-6.487,1.325-13.092,1.982-19.712,1.963c-6.62,0.019-13.225-0.638-19.712-1.963
				l11.793-29.449c1.299-3.234,4.434-5.354,7.919-5.354s6.62,2.12,7.919,5.354L488.075,56.83z"/>
		</g>
		<g>
			<path style="fill:#E3E7F2;" d="M297.355,47.955l-10.411,4.181c-2.334,0.931-4.961,0.774-7.168-0.427
				c-3.707-1.931-7.526-3.64-11.435-5.12c-2.304-0.853-4.693-1.451-6.997-2.133l-13.397-31.232
				c-0.982-2.469-3.123-4.291-5.717-4.864c0.417-0.232,0.888-0.35,1.365-0.341c3.755-0.256,7.595-0.427,11.435-0.427
				c3.84,0,7.68,0.171,11.435,0.427c3.149,0.272,5.883,2.281,7.083,5.205l13.397,31.232c2.304,0.683,4.693,1.28,6.997,2.133
				C295.136,47.016,296.246,47.443,297.355,47.955z"/>
			<path style="fill:#E3E7F2;" d="M297.27,257.278c-2.219,0.939-4.437,1.707-6.656,2.475c-2.327,0.747-4.222,2.456-5.205,4.693
				l-11.861,27.648c-1.2,2.925-3.933,4.934-7.083,5.205c-3.755,0.256-7.595,0.427-11.435,0.427c-3.84,0-7.68-0.171-11.435-0.427
				c-0.477,0.009-0.948-0.109-1.365-0.341c2.594-0.573,4.736-2.395,5.717-4.864l11.861-27.648c0.983-2.238,2.878-3.947,5.205-4.693
				c5.154-1.701,10.174-3.783,15.019-6.229c2.14-1.131,4.671-1.256,6.912-0.341L297.27,257.278z"/>
			<path style="fill:#E3E7F2;" d="M400.096,152.659c0,3.84-0.171,7.68-0.427,11.435c-0.272,3.149-2.281,5.883-5.205,7.083
				l-27.648,11.861c-2.238,0.983-3.947,2.878-4.693,5.205c-1.701,5.154-3.783,10.174-6.229,15.019
				c-1.132,2.14-1.257,4.671-0.341,6.912l11.179,27.989c1.159,2.906,0.635,6.213-1.365,8.619c-2.475,2.901-5.035,5.717-7.765,8.448
				c-2.731,2.731-5.547,5.291-8.448,7.765c-2.405,2.001-5.713,2.525-8.619,1.365l-12.715-5.12c1.451-1.28,2.816-2.645,4.181-4.011
				c2.731-2.731,5.291-5.547,7.765-8.448c2.001-2.405,2.525-5.713,1.365-8.619l-11.179-27.989c-0.915-2.241-0.79-4.772,0.341-6.912
				c2.446-4.845,4.529-9.865,6.229-15.019c0.747-2.327,2.456-4.222,4.693-5.205l27.648-11.861c2.925-1.2,4.934-3.933,5.205-7.083
				c0.256-3.755,0.427-7.595,0.427-11.435c0-3.84-0.171-7.68-0.427-11.435c-0.272-3.149-2.281-5.883-5.205-7.083l-27.648-11.861
				c-2.238-0.983-3.947-2.878-4.693-5.205c-1.701-5.154-3.783-10.174-6.229-15.019c-1.132-2.14-1.257-4.671-0.341-6.912
				l11.179-27.989c1.159-2.906,0.635-6.213-1.365-8.619c-2.475-2.901-5.035-5.717-7.765-8.448c-1.365-1.365-2.731-2.731-4.181-4.011
				l12.715-5.12c2.906-1.159,6.213-0.635,8.619,1.365c2.901,2.475,5.717,5.035,8.448,7.765c2.731,2.731,5.291,5.547,7.765,8.448
				c2.001,2.405,2.525,5.713,1.365,8.619l-11.179,27.989c-0.915,2.241-0.79,4.772,0.341,6.912c2.446,4.845,4.529,9.865,6.229,15.019
				c0.747,2.327,2.456,4.222,4.693,5.205l27.648,11.861c2.925,1.2,4.934,3.933,5.205,7.083
				C399.926,144.979,400.096,148.819,400.096,152.659z"/>
			<path style="fill:#E3E7F2;" d="M297.696,408.659c0,2.048-0.085,4.096-0.171,6.144c-0.319,3.338-2.604,6.161-5.803,7.168
				l-8.96,2.987c-2.622,0.982-4.64,3.126-5.461,5.803c-1.466,4.913-3.44,9.66-5.888,14.165c-1.36,2.48-1.455,5.46-0.256,8.021
				l4.267,8.363c1.535,3,1.132,6.626-1.024,9.216c-1.365,1.536-2.731,3.072-4.181,4.523c-1.451,1.451-2.987,2.816-4.523,4.181
				c-2.59,2.156-6.216,2.559-9.216,1.024l-8.363-4.267c-1.135-0.494-2.348-0.783-3.584-0.853l0.085-0.085
				c1.451-1.451,2.816-2.987,4.181-4.523c2.156-2.59,2.559-6.216,1.024-9.216l-4.267-8.363c-1.199-2.562-1.104-5.541,0.256-8.021
				c2.448-4.505,4.422-9.252,5.888-14.165c0.821-2.677,2.839-4.821,5.461-5.803l8.96-2.987c3.199-1.007,5.484-3.83,5.803-7.168
				c0.085-2.048,0.171-4.096,0.171-6.144c0-2.048-0.085-4.096-0.171-6.144c-0.319-3.338-2.604-6.161-5.803-7.168l-8.96-2.987
				c-2.622-0.982-4.64-3.126-5.461-5.803c-1.466-4.913-3.44-9.66-5.888-14.165c-1.36-2.48-1.455-5.46-0.256-8.021l4.267-8.363
				c1.535-3,1.132-6.626-1.024-9.216c-1.365-1.536-2.731-3.072-4.181-4.523l-0.085-0.085c1.236-0.071,2.449-0.36,3.584-0.853
				l8.363-4.267c3-1.535,6.626-1.132,9.216,1.024c1.536,1.365,3.072,2.731,4.523,4.181c1.451,1.451,2.816,2.987,4.181,4.523
				c2.156,2.59,2.559,6.216,1.024,9.216l-4.267,8.363c-1.199,2.562-1.104,5.541,0.256,8.021c2.448,4.505,4.422,9.252,5.888,14.165
				c0.821,2.677,2.839,4.821,5.461,5.803l8.96,2.987c3.199,1.007,5.484,3.83,5.803,7.168
				C297.611,404.563,297.696,406.611,297.696,408.659z"/>
		</g>
		<g>
			<path style="fill:#FFFFFF;" d="M110.176,414.769c0.297,3.361,2.58,6.217,5.794,7.245l8.909,2.97
				c2.664,0.925,4.707,3.096,5.47,5.811c1.481,4.904,3.451,9.647,5.879,14.157c1.379,2.464,1.468,5.446,0.239,7.987l-4.207,8.405
				c-1.543,3.001-1.14,6.635,1.024,9.225c1.331,1.525,2.722,3.012,4.173,4.463c1.451,1.451,2.938,2.842,4.463,4.173
				c2.589,2.168,6.226,2.568,9.225,1.016l8.405-4.198c1.143-0.567,2.402-0.859,3.678-0.853l-0.171-0.162
				c-1.451-1.451-2.842-2.938-4.173-4.463c-2.164-2.59-2.567-6.223-1.024-9.225l4.207-8.405c1.23-2.542,1.14-5.524-0.239-7.987
				c-2.429-4.51-4.399-9.253-5.879-14.157c-0.763-2.715-2.806-4.886-5.47-5.811l-8.943-2.944c-3.214-1.028-5.498-3.884-5.794-7.245
				c-0.111-2.022-0.179-4.053-0.179-6.11c0-2.057,0.068-4.087,0.213-6.11c0.297-3.361,2.58-6.217,5.794-7.245l8.909-2.97
				c2.664-0.925,4.707-3.096,5.47-5.811c1.481-4.904,3.451-9.647,5.879-14.157c1.375-2.465,1.464-5.445,0.239-7.987l-4.207-8.405
				c-1.546-3.001-1.142-6.636,1.024-9.225c1.331-1.525,2.722-3.012,4.173-4.463l0.171-0.162c-1.276,0.006-2.535-0.286-3.678-0.853
				l-8.405-4.207c-3.001-1.546-6.636-1.142-9.225,1.024c-1.53,1.331-3.018,2.722-4.463,4.173c-1.445,1.451-2.836,2.938-4.173,4.463
				c-2.166,2.589-2.57,6.224-1.024,9.225l4.207,8.405c1.225,2.543,1.136,5.522-0.239,7.987c-2.429,4.51-4.399,9.253-5.879,14.157
				c-0.763,2.715-2.806,4.886-5.47,5.811l-8.909,2.97c-3.214,1.028-5.498,3.884-5.794,7.245c-0.145,2.022-0.213,4.053-0.213,6.11
				C109.963,410.69,110.031,412.747,110.176,414.769z"/>
			<path style="fill:#FFFFFF;" d="M434.23,92.926v375.467c0,18.859,9.549,34.133,21.333,34.133c1.684-0.03,3.347-0.372,4.907-1.007
				c5.165,1.343,10.588,1.343,15.753,0c-9.387-3.575-16.393-16.998-16.393-33.126V92.926H434.23z"/>
			<path style="fill:#FFFFFF;" d="M147.936,117.075c-0.738,2.315-2.435,4.202-4.659,5.18l-27.665,11.87
				c-2.902,1.22-4.896,3.94-5.188,7.074c-0.307,3.78-0.461,7.62-0.461,11.46c0,3.84,0.154,7.68,0.461,11.46
				c0.292,3.135,2.286,5.854,5.188,7.074l27.631,11.87c2.226,0.976,3.924,2.863,4.659,5.18c1.704,5.136,3.781,10.142,6.212,14.976
				c1.112,2.162,1.243,4.698,0.358,6.963l-11.162,27.955c-1.192,2.913-0.683,6.245,1.323,8.67c2.466,2.893,5.069,5.717,7.782,8.431
				c2.714,2.714,5.538,5.316,8.431,7.782c2.425,2.006,5.757,2.514,8.67,1.323l12.8-5.12c-1.442-1.331-2.935-2.56-4.326-3.985
				c-2.714-2.714-5.316-5.538-7.782-8.431c-2.006-2.425-2.514-5.757-1.323-8.67l11.162-27.955c0.884-2.265,0.754-4.801-0.358-6.963
				c-2.432-4.834-4.508-9.84-6.212-14.976c-0.736-2.316-2.433-4.204-4.659-5.18l-27.665-11.87c-2.902-1.22-4.896-3.94-5.188-7.074
				c-0.247-3.78-0.401-7.62-0.401-11.46c0-3.84,0.154-7.68,0.461-11.46c0.292-3.135,2.286-5.854,5.188-7.074l27.631-11.87
				c2.225-0.978,3.922-2.864,4.659-5.18c1.706-5.138,3.782-10.146,6.212-14.985c1.112-2.159,1.242-4.692,0.358-6.955l-11.127-27.955
				c-1.192-2.913-0.683-6.245,1.323-8.67c2.466-2.893,5.069-5.717,7.782-8.431c1.391-1.391,2.884-2.662,4.326-3.985l-12.8-5.12
				c-2.913-1.192-6.245-0.683-8.67,1.323c-2.893,2.466-5.717,5.069-8.431,7.782c-2.714,2.714-5.316,5.538-7.782,8.431
				c-2.006,2.425-2.514,5.757-1.323,8.67l11.162,27.955c0.884,2.262,0.753,4.795-0.358,6.955
				C151.735,106.928,149.65,111.936,147.936,117.075z"/>
			<path style="fill:#FFFFFF;" d="M213.105,487.609c-0.925-2.664-3.096-4.707-5.811-5.47c-4.904-1.481-9.647-3.451-14.157-5.879
				c-2.464-1.379-5.446-1.469-7.987-0.239l-8.405,4.198c-0.06,0-0.137,0-0.205,0.077c1.707,0.649,3.413,1.314,5.12,1.843
				c2.715,0.763,4.886,2.806,5.811,5.47l2.97,8.909c1.028,3.214,3.884,5.498,7.245,5.794c2.022,0.145,4.053,0.213,6.11,0.213
				c2.057,0,4.087-0.068,6.11-0.213c2.906-0.264,5.453-2.051,6.69-4.693c-0.21-0.354-0.396-0.721-0.555-1.101L213.105,487.609z"/>
			<path style="fill:#FFFFFF;" d="M16.096,502.526h25.6c-4.713,0-8.533-3.821-8.533-8.533V16.126c0-4.713,3.821-8.533,8.533-8.533
				h-25.6c-4.713,0-8.533,3.821-8.533,8.533v477.867C7.563,498.705,11.383,502.526,16.096,502.526z"/>
			<path style="fill:#FFFFFF;" d="M176.523,336.979c0.068,0,0.145,0.043,0.205,0.068l8.405,4.207
				c2.543,1.225,5.522,1.136,7.987-0.239c4.51-2.429,9.253-4.399,14.157-5.879c2.715-0.763,4.886-2.806,5.811-5.47l2.97-8.909
				c0.159-0.379,0.344-0.747,0.555-1.101c-1.238-2.642-3.784-4.429-6.69-4.693c-2.005-0.102-4.036-0.171-6.093-0.171
				c-2.057,0-4.087,0.068-6.11,0.213c-3.361,0.297-6.217,2.58-7.245,5.794l-2.97,8.909c-0.925,2.664-3.096,4.707-5.811,5.47
				C179.936,335.708,178.23,336.373,176.523,336.979z"/>
			<path style="fill:#FFFFFF;" d="M265.739,338.114c-2.534-2.107-6.068-2.531-9.028-1.084c3.102,1.155,6.126,2.509,9.054,4.053
				c1.316,0.683,2.784,1.021,4.267,0.981c-1.007-0.99-2.065-1.937-3.123-2.893C266.473,338.814,266.123,338.447,265.739,338.114z"/>
			<path style="fill:#FFFFFF;" d="M338.136,52.136l15.147-6.042c-1.374-1.263-2.697-2.56-4.105-3.797
				c-2.182-1.785-5.111-2.365-7.808-1.545c-0.282,0.077-0.563,0.102-0.853,0.205l-1.391,0.563l-16.375,6.537
				c2.782,1.161,5.564,2.313,8.243,3.695C333.203,52.92,335.814,53.061,338.136,52.136z"/>
			<path style="fill:#FFFFFF;" d="M262.095,292.077l-11.87-27.631c-0.976-2.226-2.863-3.924-5.18-4.659
				c-5.136-1.704-10.142-3.78-14.976-6.212c-2.162-1.112-4.698-1.243-6.963-0.358l-10.24,4.105c2.185,0.853,4.378,1.707,6.613,2.466
				c2.316,0.736,4.204,2.433,5.18,4.659l11.87,27.665c1.071,2.474,3.247,4.296,5.871,4.915c0.382,0.192,0.802,0.297,1.229,0.307
				c3.755,0.256,7.595,0.427,11.435,0.427c3.84,0,7.68-0.171,11.435-0.427c0.498-0.065,0.989-0.173,1.468-0.324
				C265.339,296.386,263.162,294.557,262.095,292.077z"/>
			<path style="fill:#FFFFFF;" d="M340.534,264.36c0.273,0.102,0.555,0.128,0.853,0.205c2.697,0.82,5.626,0.241,7.808-1.545
				c1.408-1.203,2.731-2.56,4.105-3.797l-15.13-6.042c-2.265-0.884-4.801-0.754-6.963,0.358c-2.722,1.374-5.504,2.56-8.329,3.738
				l16.29,6.511L340.534,264.36z"/>
			<path style="fill:#FFFFFF;" d="M265.696,479.23c0.375-0.333,0.734-0.7,1.109-1.033c1.058-0.956,2.116-1.903,3.123-2.901
				c-1.483-0.032-2.95,0.308-4.267,0.99c-2.928,1.544-5.952,2.898-9.054,4.053C259.589,481.805,263.155,481.37,265.696,479.23z"/>
			<path style="fill:#FFFFFF;" d="M255.03,7.592c-3.84,0-7.68,0.171-11.435,0.427c-0.437,0.005-0.867,0.113-1.254,0.316
				c-2.612,0.625-4.778,2.442-5.845,4.907l-13.389,31.189c-2.338,0.674-4.676,1.348-6.963,2.167
				c-1.109,0.418-2.15,0.998-3.251,1.459l10.24,4.079c2.317,0.919,4.92,0.779,7.125-0.384c3.726-1.933,7.565-3.643,11.494-5.12
				c2.287-0.853,4.625-1.493,6.963-2.167l13.389-31.189c1.066-2.457,3.224-4.271,5.828-4.898c-0.476-0.151-0.964-0.26-1.459-0.324
				C262.71,7.763,258.87,7.592,255.03,7.592z"/>
		</g>
	</g>
	<g>
		<polygon style="fill:#FFFFFF;" points="443.763,94.926 443.763,205.859 443.763,436.259 426.696,436.259 426.696,205.859 
			426.696,94.926 		"/>
		<g>
			<path style="fill:#428DFF;" d="M435.23,171.726c3.467,0.02,6.601-2.059,7.931-5.261c1.329-3.202,0.59-6.89-1.872-9.331
				l-1.28-1.024c-0.476-0.323-0.992-0.581-1.536-0.768c-0.484-0.246-1.001-0.419-1.536-0.512c-0.564-0.095-1.135-0.152-1.707-0.171
				c-2.259,0.033-4.422,0.917-6.059,2.475c-0.771,0.816-1.38,1.772-1.792,2.816c-1.288,3.183-0.586,6.825,1.792,9.301
				c0.816,0.771,1.772,1.38,2.816,1.792C433.013,171.48,434.114,171.712,435.23,171.726z"/>
			<path style="fill:#428DFF;" d="M17.096,513.059h51.2c9.426,0,17.067-7.641,17.067-17.067V18.126
				c0-9.426-7.641-17.067-17.067-17.067h-51.2C7.671,1.059,0.03,8.7,0.03,18.126v477.867C0.03,505.418,7.671,513.059,17.096,513.059
				z M68.296,18.126v477.867h-51.2v-17.067h8.533c4.713,0,8.533-3.821,8.533-8.533c0-4.713-3.821-8.533-8.533-8.533h-8.533v-25.6
				h8.533c4.713,0,8.533-3.82,8.533-8.533s-3.821-8.533-8.533-8.533h-8.533v-25.6h17.067c4.713,0,8.533-3.82,8.533-8.533
				s-3.821-8.533-8.533-8.533H17.096v-25.6h8.533c4.713,0,8.533-3.821,8.533-8.533s-3.821-8.533-8.533-8.533h-8.533v-25.6h8.533
				c4.713,0,8.533-3.82,8.533-8.533s-3.821-8.533-8.533-8.533h-8.533v-25.6h17.067c4.713,0,8.533-3.821,8.533-8.533
				c0-4.713-3.821-8.533-8.533-8.533H17.096v-25.6h8.533c4.713,0,8.533-3.821,8.533-8.533s-3.821-8.533-8.533-8.533h-8.533v-25.6
				h8.533c4.713,0,8.533-3.821,8.533-8.533c0-4.713-3.821-8.533-8.533-8.533h-8.533v-25.6h17.067c4.713,0,8.533-3.821,8.533-8.533
				c0-4.713-3.821-8.533-8.533-8.533H17.096v-25.6h8.533c4.713,0,8.533-3.821,8.533-8.533c0-4.713-3.821-8.533-8.533-8.533h-8.533
				v-25.6h8.533c4.713,0,8.533-3.821,8.533-8.533s-3.821-8.533-8.533-8.533h-8.533V18.126H68.296z"/>
			<path style="fill:#428DFF;" d="M512.03,95.079v-0.154c-0.054-0.512-0.157-1.018-0.307-1.51c-0.038-0.578-0.138-1.15-0.299-1.707
				L477.29,6.375C475.997,3.13,472.857,1,469.363,1s-6.634,2.13-7.927,5.375l-34.133,85.333c-0.158,0.557-0.261,1.129-0.307,1.707
				c-0.143,0.494-0.243,0.999-0.299,1.51v34.133c0,4.713,3.82,8.533,8.533,8.533s8.533-3.821,8.533-8.533v-25.6h51.2v290.133h-51.2
				V197.326c0-4.713-3.82-8.533-8.533-8.533s-8.533,3.821-8.533,8.533v273.067c0,23.564,19.103,42.667,42.667,42.667
				s42.667-19.103,42.667-42.667V95.079z M455.078,68.276c4.733,0.667,9.505,1.018,14.285,1.05c4.78-0.032,9.552-0.382,14.285-1.05
				l7.245,18.116h-43.059L455.078,68.276z M469.363,32.564l7.723,19.311c-5.14,0.418-10.305,0.418-15.445,0L469.363,32.564z
				 M494.963,410.659v25.6h-51.2v-25.6H494.963z M469.363,495.992c-14.138,0-25.6-11.462-25.6-25.6v-17.067h51.2v17.067
				C494.963,484.531,483.501,495.992,469.363,495.992z"/>
			<path style="fill:#428DFF;" d="M285.376,74.446c-19.004-6.81-39.782-6.81-58.786,0c-38.64,14.242-61.511,54.136-54.278,94.676
				c7.233,40.541,42.49,70.063,83.671,70.063s76.437-29.523,83.671-70.063C346.887,128.581,324.016,88.687,285.376,74.446z
				 M304.268,202.941c-19.789,19.674-49.559,25.323-75.179,14.267s-41.933-36.592-41.195-64.486
				c0.738-27.894,18.379-52.531,44.549-62.216c15.219-5.456,31.86-5.456,47.078,0c21.889,8.035,38.169,26.679,43.18,49.452
				c5.011,22.772-1.938,46.528-18.433,63.009V202.941z"/>
			<path style="fill:#428DFF;" d="M270.681,114.552c-9.497-3.422-19.891-3.422-29.389,0c-19.331,7.12-30.775,27.075-27.158,47.356
				c3.616,20.28,21.253,35.05,41.853,35.05s38.237-14.77,41.853-35.05S290.012,121.673,270.681,114.552z M274.095,172.775
				c-10.123,9.685-26.076,9.685-36.198,0c-6.136-6.188-8.716-15.065-6.853-23.579c1.864-8.513,7.917-15.501,16.077-18.559
				c5.717-2.043,11.964-2.043,17.681,0c8.224,3,14.345,9.994,16.228,18.543c1.883,8.549-0.733,17.468-6.936,23.646V172.775z"/>
			<path style="fill:#428DFF;" d="M403.494,130.296l-32.265-13.85c-1.843-5.561-4.09-10.98-6.724-16.213l13.022-32.614
				c1.128-2.825,0.666-6.038-1.212-8.431c-3.629-4.606-7.527-8.994-11.674-13.141c-4.146-4.155-8.531-8.064-13.133-11.708
				c-2.395-1.881-5.612-2.343-8.439-1.212l-32.674,13.082c-4.065-2.136-8.257-4.019-12.552-5.641
				c-1.178-0.418-2.372-0.811-3.584-1.186L280.392,7.195c-1.198-2.804-3.8-4.755-6.827-5.12c-11.657-1.357-23.432-1.357-35.089,0
				c-3.027,0.365-5.629,2.316-6.827,5.12l-13.824,32.188c-1.22,0.375-2.441,0.777-3.661,1.22c-4.285,1.609-8.465,3.481-12.518,5.606
				L168.99,33.161c-2.828-1.131-6.044-0.669-8.439,1.212c-4.603,3.63-8.988,7.528-13.133,11.674
				c-4.16,4.141-8.07,8.526-11.708,13.133c-1.878,2.393-2.34,5.606-1.212,8.431l13.013,32.606
				c-2.634,5.233-4.881,10.652-6.724,16.213l-32.256,13.85c-2.804,1.198-4.755,3.8-5.12,6.827c-1.365,11.645-1.365,23.41,0,35.055
				c0.365,3.027,2.316,5.629,5.12,6.827l32.256,13.85c1.843,5.561,4.09,10.98,6.724,16.213l-12.979,32.649
				c-1.131,2.828-0.669,6.044,1.212,8.439c7.262,9.228,15.588,17.566,24.806,24.841c2.395,1.881,5.612,2.343,8.439,1.212
				l32.597-13.013c5.234,2.632,10.653,4.879,16.213,6.724l13.85,32.256c1.198,2.804,3.8,4.755,6.827,5.12
				c11.657,1.365,23.433,1.365,35.089,0c3.027-0.365,5.629-2.316,6.827-5.12l13.85-32.256c5.56-1.845,10.979-4.093,16.213-6.724
				l32.597,13.013c2.828,1.131,6.044,0.669,8.439-1.212c9.23-7.275,17.573-15.609,24.858-24.832
				c1.881-2.395,2.343-5.612,1.212-8.439l-13.047-32.606c2.634-5.233,4.881-10.652,6.724-16.213l32.256-13.85
				c2.804-1.198,4.755-3.8,5.12-6.827c1.365-11.645,1.365-23.41,0-35.055C408.261,134.118,406.307,131.5,403.494,130.296z
				 M392.136,165.326l-31.241,13.414c-2.333,1.005-4.098,2.998-4.813,5.436c-2.085,7.064-4.914,13.886-8.439,20.352
				c-1.219,2.232-1.378,4.892-0.435,7.253l12.604,31.573c-2.27,2.671-4.702,5.299-7.245,7.834c-2.543,2.534-5.163,4.975-7.834,7.245
				l-31.573-12.604c-2.362-0.943-5.021-0.783-7.253,0.435c-6.464,3.527-13.287,6.353-20.352,8.431
				c-2.443,0.715-4.439,2.483-5.444,4.821l-13.414,31.249c-7.1,0.572-14.234,0.572-21.333,0l-13.406-31.241
				c-1.005-2.339-3.001-4.107-5.444-4.821c-7.065-2.078-13.888-4.904-20.352-8.431c-2.232-1.219-4.891-1.378-7.253-0.435
				l-31.573,12.604c-2.671-2.27-5.299-4.702-7.834-7.236c-2.534-2.534-4.975-5.171-7.245-7.842l12.604-31.573
				c0.943-2.362,0.783-5.021-0.435-7.253c-3.526-6.466-6.355-13.288-8.439-20.352c-0.715-2.438-2.479-4.431-4.813-5.436
				l-31.249-13.423c-0.282-3.524-0.427-7.091-0.427-10.667s0.145-7.142,0.427-10.667l31.241-13.414
				c2.333-1.005,4.098-2.998,4.813-5.436c2.085-7.064,4.914-13.886,8.439-20.352c1.219-2.232,1.378-4.892,0.435-7.253
				l-12.604-31.573c2.27-2.671,4.693-5.291,7.245-7.834c2.551-2.543,5.163-4.975,7.834-7.245l31.676,12.638
				c2.364,0.946,5.027,0.786,7.262-0.435c4.426-2.483,9.026-4.642,13.764-6.46c2.082-0.742,4.215-1.357,6.451-2.005
				c2.454-0.71,4.462-2.482,5.47-4.83l13.414-31.241c7.1-0.572,14.234-0.572,21.333,0l13.414,31.241
				c1.05,2.367,3.093,4.148,5.581,4.864c2.125,0.614,4.267,1.229,6.255,1.946c4.769,1.82,9.398,3.988,13.85,6.485
				c2.234,1.221,4.898,1.381,7.262,0.435l31.718-12.646c2.671,2.27,5.299,4.702,7.834,7.236c2.534,2.534,4.975,5.171,7.245,7.842
				l-12.604,31.573c-0.943,2.362-0.783,5.021,0.435,7.253c3.526,6.466,6.355,13.288,8.439,20.352
				c0.715,2.438,2.479,4.431,4.813,5.436l31.198,13.423c0.282,3.524,0.427,7.091,0.427,10.667S392.418,161.801,392.136,165.326z"/>
			<path style="fill:#428DFF;" d="M204.83,461.859c28.277,0,51.2-22.923,51.2-51.2c0-28.277-22.923-51.2-51.2-51.2
				s-51.2,22.923-51.2,51.2C153.658,438.924,176.564,461.831,204.83,461.859z M204.83,376.526c18.851,0,34.133,15.282,34.133,34.133
				c0,18.851-15.282,34.133-34.133,34.133s-34.133-15.282-34.133-34.133C170.696,391.808,185.978,376.526,204.83,376.526z"/>
			<path style="fill:#428DFF;" d="M109.026,390.956c-3.094,1.036-5.326,3.745-5.751,6.98c-1.126,8.445-1.126,17.002,0,25.446
				c0.425,3.235,2.657,5.944,5.751,6.98l14.097,4.693c1.667,5.59,3.909,10.992,6.69,16.119l-6.647,13.295
				c-1.456,2.915-1.125,6.405,0.853,8.994c5.185,6.769,11.242,12.824,18.014,18.005c2.589,1.978,6.079,2.309,8.994,0.853
				l13.295-6.647c5.13,2.78,10.535,5.019,16.128,6.682l4.676,14.089c1.033,3.097,3.743,5.334,6.98,5.76
				c8.45,1.126,17.013,1.126,25.463,0c3.237-0.426,5.947-2.663,6.98-5.76l4.676-14.089c5.593-1.663,10.998-3.902,16.128-6.682
				l13.295,6.647c2.915,1.456,6.405,1.125,8.994-0.853c6.772-5.182,12.829-11.236,18.014-18.005
				c1.978-2.589,2.309-6.079,0.853-8.994l-6.647-13.295c2.781-5.128,5.023-10.53,6.69-16.119l14.097-4.693
				c3.094-1.036,5.326-3.745,5.751-6.98c1.126-8.445,1.126-17.002,0-25.446c-0.425-3.235-2.657-5.944-5.751-6.98l-14.097-4.693
				c-1.667-5.59-3.909-10.992-6.69-16.119l6.647-13.295c1.456-2.915,1.125-6.405-0.853-8.994
				c-5.185-6.769-11.242-12.824-18.014-18.005c-2.589-1.978-6.079-2.309-8.994-0.853l-13.303,6.647
				c-5.126-2.781-10.529-5.02-16.119-6.682l-4.676-14.089c-1.033-3.097-3.743-5.334-6.98-5.76c-8.45-1.135-17.014-1.135-25.463,0
				c-3.237,0.426-5.947,2.663-6.98,5.76l-4.676,14.089c-5.591,1.661-10.993,3.9-16.119,6.682l-13.303-6.647
				c-2.915-1.456-6.405-1.125-8.994,0.853c-6.772,5.182-12.829,11.236-18.014,18.005c-1.978,2.589-2.309,6.079-0.853,8.994
				l6.647,13.295c-2.781,5.128-5.023,10.53-6.69,16.119L109.026,390.956z M132.868,400.999c2.801-0.932,4.922-3.246,5.606-6.118
				c1.676-7.052,4.47-13.791,8.277-19.959c1.556-2.516,1.698-5.657,0.375-8.303l-6.229-12.467c1.152-1.306,2.338-2.56,3.593-3.831
				c1.254-1.271,2.56-2.441,3.84-3.601l12.467,6.238c2.646,1.322,5.787,1.18,8.303-0.375c6.159-3.811,12.893-6.603,19.942-8.269
				c2.881-0.681,5.203-2.806,6.135-5.615l4.395-13.201c3.501-0.222,7.012-0.222,10.513,0l4.395,13.201
				c0.933,2.809,3.255,4.934,6.135,5.615c7.051,1.666,13.788,4.458,19.951,8.269c2.513,1.552,5.651,1.694,8.294,0.375l12.467-6.238
				c1.314,1.161,2.56,2.347,3.84,3.601c1.28,1.254,2.441,2.56,3.593,3.831l-6.229,12.467c-1.322,2.646-1.18,5.787,0.375,8.303
				c3.807,6.169,6.602,12.907,8.277,19.959c0.685,2.872,2.805,5.186,5.606,6.118l13.193,4.403c0.119,1.707,0.179,3.482,0.179,5.257
				c0,1.775-0.06,3.516-0.179,5.257l-13.193,4.403c-2.801,0.932-4.922,3.246-5.606,6.118c-1.676,7.052-4.47,13.791-8.277,19.959
				c-1.556,2.516-1.698,5.657-0.375,8.303l6.229,12.467c-1.152,1.306-2.338,2.56-3.593,3.831c-1.254,1.271-2.56,2.441-3.84,3.593
				l-12.459-6.229c-2.644-1.325-5.786-1.186-8.303,0.367c-6.162,3.815-12.899,6.61-19.951,8.277
				c-2.881,0.681-5.203,2.806-6.135,5.615l-4.395,13.201c-3.501,0.222-7.012,0.222-10.513,0l-4.395-13.201
				c-0.933-2.809-3.255-4.934-6.135-5.615c-7.052-1.668-13.789-4.463-19.951-8.277c-2.517-1.553-5.659-1.692-8.303-0.367
				l-12.459,6.229c-1.314-1.152-2.56-2.338-3.84-3.593c-1.28-1.254-2.441-2.56-3.593-3.831l6.229-12.467
				c1.322-2.646,1.18-5.787-0.375-8.303c-3.807-6.169-6.602-12.907-8.277-19.959c-0.684-2.872-2.805-5.186-5.606-6.118
				l-13.193-4.403c-0.119-1.707-0.179-3.482-0.179-5.257c0-1.775,0.06-3.516,0.179-5.257L132.868,400.999z"/>
			<path style="fill:#428DFF;" d="M198.771,416.718c0.83,0.753,1.782,1.359,2.816,1.792c1.026,0.437,2.128,0.669,3.243,0.683
				c0.572-0.015,1.143-0.072,1.707-0.171c0.535-0.093,1.052-0.265,1.536-0.512c0.544-0.186,1.06-0.445,1.536-0.768
				c0.447-0.315,0.875-0.657,1.28-1.024c0.753-0.83,1.359-1.782,1.792-2.816c0.911-2.066,0.911-4.42,0-6.485
				c-0.433-1.034-1.039-1.986-1.792-2.816c-0.405-0.367-0.833-0.709-1.28-1.024c-0.476-0.323-0.992-0.581-1.536-0.768
				c-0.484-0.246-1.001-0.419-1.536-0.512c-1.663-0.349-3.393-0.17-4.949,0.512c-2.144,0.776-3.832,2.464-4.608,4.608
				c-0.91,2.066-0.91,4.419,0,6.485C197.412,414.935,198.018,415.888,198.771,416.718z"/>
		</g>
	</g>
</g>
<g>
</g>
<g>
</g>
<g>
</g>
<g>
</g>
<g>
</g>
<g>
</g>
<g>
</g>
<g>
</g>
<g>
</g>
<g>
</g>
<g>
</g>
<g>
</g>
<g>
</g>
<g>
</g>
<g>
</g>
</svg>
