<?xml version="1.0" encoding="iso-8859-1"?>
<!-- Generator: Adobe Illustrator 19.0.0, SVG Export Plug-In . SVG Version: 6.00 Build 0)  -->
<svg version="1.1" id="Capa_1" xmlns="http://www.w3.org/2000/svg" xmlns:xlink="http://www.w3.org/1999/xlink" x="0px" y="0px"
	 viewBox="0 0 512 512" style="enable-background:new 0 0 512 512;" xml:space="preserve">
<g>
	<rect x="477.867" y="42.667" style="fill:#A4C2F7;" width="25.6" height="341.333"/>
	<rect x="8.533" y="42.667" style="fill:#FFFFFF;" width="25.6" height="341.333"/>
	
		<linearGradient id="SVGID_1_" gradientUnits="userSpaceOnUse" x1="-48.8319" y1="652.6678" x2="-47.9473" y2="651.5178" gradientTransform="matrix(443.7334 0 0 -341.3333 21728.0664 222794.3438)">
		<stop  offset="0" style="stop-color:#D3DFF2"/>
		<stop  offset="0.1717" style="stop-color:#D3DFF2"/>
		<stop  offset="0.2" style="stop-color:#D3DFF2"/>
		<stop  offset="0.2002" style="stop-color:#DAE2F2"/>
		<stop  offset="0.2007" style="stop-color:#EBEAF2"/>
		<stop  offset="0.2014" style="stop-color:#F6EFF2"/>
		<stop  offset="0.2023" style="stop-color:#FDF2F2"/>
		<stop  offset="0.205" style="stop-color:#FFF3F2"/>
		<stop  offset="0.2522" style="stop-color:#FFF3F2"/>
		<stop  offset="0.26" style="stop-color:#FFF3F2"/>
		<stop  offset="0.26" style="stop-color:#D3DFF2"/>
		<stop  offset="0.3974" style="stop-color:#D3DFF2"/>
		<stop  offset="0.42" style="stop-color:#D3DFF2"/>
		<stop  offset="0.4202" style="stop-color:#DAE2F2"/>
		<stop  offset="0.4207" style="stop-color:#EBEAF2"/>
		<stop  offset="0.4214" style="stop-color:#F6EFF2"/>
		<stop  offset="0.4223" style="stop-color:#FDF2F2"/>
		<stop  offset="0.425" style="stop-color:#FFF3F2"/>
		<stop  offset="0.4894" style="stop-color:#FFF3F2"/>
		<stop  offset="0.5" style="stop-color:#FFF3F2"/>
		<stop  offset="0.5" style="stop-color:#F8F0F2"/>
		<stop  offset="0.5001" style="stop-color:#E7E8F2"/>
		<stop  offset="0.5003" style="stop-color:#DCE3F2"/>
		<stop  offset="0.5005" style="stop-color:#D5E0F2"/>
		<stop  offset="0.501" style="stop-color:#D3DFF2"/>
		<stop  offset="0.7062" style="stop-color:#D3DFF2"/>
		<stop  offset="0.74" style="stop-color:#D3DFF2"/>
		<stop  offset="0.741" style="stop-color:#FFF3F2"/>
		<stop  offset="0.8346" style="stop-color:#FFF3F2"/>
		<stop  offset="0.85" style="stop-color:#FFF3F2"/>
		<stop  offset="0.851" style="stop-color:#D3DFF2"/>
	</linearGradient>
	<rect x="34.133" y="42.667" style="fill:url(#SVGID_1_);" width="443.733" height="341.333"/>
	<g>
		<path style="fill:#428DFF;" d="M512,392.533H0V153.6c0-4.713,3.821-8.533,8.533-8.533s8.533,3.82,8.533,8.533v221.867h477.867
			v-34.133c0-4.713,3.821-8.533,8.533-8.533s8.533,3.82,8.533,8.533V392.533z"/>
		<path style="fill:#428DFF;" d="M503.467,281.6c-2.264,0.001-4.435-0.897-6.035-2.498c-1.601-1.601-2.499-3.772-2.498-6.035V51.2
			H17.067v34.133c0,4.713-3.821,8.533-8.533,8.533S0,90.046,0,85.333v-51.2h512v238.933c0.001,2.264-0.897,4.435-2.498,6.035
			C507.901,280.703,505.73,281.601,503.467,281.6z"/>
		<circle style="fill:#428DFF;" cx="8.533" cy="119.467" r="8.533"/>
		<circle style="fill:#428DFF;" cx="503.467" cy="307.2" r="8.533"/>
	</g>
	<path style="fill:#7FACFA;" d="M384,213.333c0,70.692-57.308,128-128,128s102.4-57.308,102.4-128s-173.092-128-102.4-128
		S384,142.641,384,213.333z"/>
	<g>
		<ellipse style="fill:#A4C2F7;" cx="243.2" cy="213.333" rx="115.2" ry="128"/>
		<polygon style="fill:#A4C2F7;" points="221.867,273.067 221.867,212.941 221.867,153.6 315.733,213.333 		"/>
	</g>
	<polygon style="fill:#D4E1F4;" points="221.867,273.067 221.867,212.941 221.867,153.6 281.6,213.333 	"/>
	<g>
		<path style="fill:#428DFF;" d="M256,51.2c-2.264,0.001-4.435-0.897-6.035-2.498s-2.499-3.772-2.498-6.035V8.533
			C247.467,3.821,251.287,0,256,0c4.713,0,8.533,3.821,8.533,8.533v34.133c0.001,2.264-0.897,4.435-2.498,6.035
			S258.264,51.201,256,51.2z"/>
		<path style="fill:#428DFF;" d="M256,494.933c-2.264,0.001-4.435-0.897-6.035-2.498c-1.601-1.601-2.499-3.772-2.498-6.035V384
			c0-4.713,3.821-8.533,8.533-8.533c4.713,0,8.533,3.821,8.533,8.533v102.4c0.001,2.264-0.897,4.435-2.498,6.035
			C260.435,494.036,258.264,494.935,256,494.933z"/>
		<path style="fill:#428DFF;" d="M375.467,512c-2.264,0.003-4.435-0.897-6.033-2.5L249.967,390.033
			c-3.281-3.341-3.256-8.701,0.054-12.012c3.311-3.311,8.671-3.335,12.012-0.054L381.5,497.434c2.44,2.44,3.169,6.11,1.849,9.298
			C382.028,509.92,378.918,511.999,375.467,512z"/>
		<path style="fill:#428DFF;" d="M136.533,512c-3.451-0.001-6.562-2.08-7.882-5.268c-1.32-3.188-0.591-6.858,1.849-9.298
			l119.467-119.467c3.341-3.281,8.701-3.256,12.012,0.054c3.311,3.311,3.335,8.671,0.054,12.012L142.566,509.5
			C140.968,511.103,138.797,512.003,136.533,512L136.533,512z"/>
		<path style="fill:#428DFF;" d="M256,349.867c-75.405,0-136.533-61.128-136.533-136.533S180.595,76.8,256,76.8
			s136.533,61.128,136.533,136.533C392.447,288.703,331.37,349.78,256,349.867z M256,93.867
			c-65.98,0-119.467,53.487-119.467,119.467S190.02,332.8,256,332.8s119.467-53.487,119.467-119.467
			C375.393,147.384,321.949,93.941,256,93.867z"/>
		<path style="fill:#428DFF;" d="M221.867,281.6c-2.264,0.003-4.436-0.896-6.037-2.496c-1.601-1.601-2.499-3.773-2.496-6.037V153.6
			c-0.002-3.116,1.695-5.985,4.426-7.484c2.731-1.499,6.063-1.39,8.69,0.284l93.867,59.733c2.46,1.567,3.95,4.283,3.95,7.2
			s-1.49,5.633-3.95,7.2l-93.867,59.733C225.079,281.135,223.49,281.597,221.867,281.6z M230.4,169.142v88.383l69.442-44.192
			L230.4,169.142z"/>
	</g>
</g>
<g>
</g>
<g>
</g>
<g>
</g>
<g>
</g>
<g>
</g>
<g>
</g>
<g>
</g>
<g>
</g>
<g>
</g>
<g>
</g>
<g>
</g>
<g>
</g>
<g>
</g>
<g>
</g>
<g>
</g>
</svg>
