<svg id="Layer_1" data-name="Layer 1" xmlns="http://www.w3.org/2000/svg" viewBox="0 0 425.13 128.47"><defs><style>.cls-1{fill:#2491eb;fill-rule:evenodd;}.cls-2{fill:#fff;}</style></defs><title>automated-ascent-logo-white</title><path class="cls-1" d="M100.16,36,86,11.6l-74.1,128c23.7,0,46.6.19,70.17.19,8.48-14.65,16.92-28.06,25.27-42.5,8.18,14.14,16.49,28.17,24.67,42.31l28.52.43c-17.68-30.55-35.5-61-53.19-91.59C94.43,70.83,81,92.87,68.09,115.17H54.36Z" transform="translate(-11.92 -11.6)"/><g id="Layer_2" data-name="Layer 2"><path class="cls-2" d="M174.41,37.93h4.68l12.62,28.91h-5.33l-2.91-6.93H169.9l-3,6.93h-5.17Zm7.22,17.51-5-11.48-4.92,11.48Z" transform="translate(-11.92 -11.6)"/><path class="cls-2" d="M208.4,67.29a15.05,15.05,0,0,1-5-.8,10.09,10.09,0,0,1-3.86-2.4,10.82,10.82,0,0,1-2.46-4,16,16,0,0,1-.86-5.47V38.14h5V54.46c0,2.67.64,4.71,1.93,6.1a6.93,6.93,0,0,0,5.36,2.1,7,7,0,0,0,5.32-2q1.94-2,1.94-6V38.14h5V54.42a16.28,16.28,0,0,1-.88,5.61,11,11,0,0,1-2.48,4,10.06,10.06,0,0,1-3.87,2.42A15.44,15.44,0,0,1,208.4,67.29Z" transform="translate(-11.92 -11.6)"/><path class="cls-2" d="M234.72,42.81h-9.1V38.14h23.29v4.67h-9.1v24h-5.09Z" transform="translate(-11.92 -11.6)"/><path class="cls-2" d="M267.93,67.33a15.38,15.38,0,0,1-6.07-1.17,14.36,14.36,0,0,1-7.79-7.87,15,15,0,0,1-1.1-5.72v-.08a15,15,0,0,1,1.1-5.72,14.6,14.6,0,0,1,3.12-4.72A14.91,14.91,0,0,1,268,37.65a15.49,15.49,0,0,1,6.07,1.16A14.44,14.44,0,0,1,278.8,42,14.88,14.88,0,0,1,283,52.41v.08a14.83,14.83,0,0,1-1.11,5.72,14.43,14.43,0,0,1-3.11,4.71A14.88,14.88,0,0,1,274,66.14,15.15,15.15,0,0,1,267.93,67.33ZM268,62.7a9.41,9.41,0,0,0,3.9-.8,9.19,9.19,0,0,0,3-2.18,9.74,9.74,0,0,0,2-3.21,10.77,10.77,0,0,0,.72-3.94v-.08a10.91,10.91,0,0,0-.72-4,9.55,9.55,0,0,0-5.08-5.43,9.27,9.27,0,0,0-3.92-.82,9.48,9.48,0,0,0-3.9.8,9.37,9.37,0,0,0-3,2.17,10.24,10.24,0,0,0-2,3.22,10.93,10.93,0,0,0-.71,3.94v.08a11.07,11.07,0,0,0,.71,3.95,9.88,9.88,0,0,0,2,3.24,9.71,9.71,0,0,0,3.09,2.2A9.38,9.38,0,0,0,268,62.7Z" transform="translate(-11.92 -11.6)"/><path class="cls-2" d="M289.09,38.14h5.37l8.73,13.57,8.74-13.57h5.37v28.7h-5V46.26l-9.06,13.53h-.16l-9-13.45v20.5h-5Z" transform="translate(-11.92 -11.6)"/><path class="cls-2" d="M334.84,37.93h4.68l12.63,28.91h-5.33l-2.91-6.93H330.33l-2.95,6.93h-5.16Zm7.22,17.51L337.1,44l-4.92,11.48Z" transform="translate(-11.92 -11.6)"/><path class="cls-2" d="M364.12,42.81H355V38.14H378.3v4.67h-9.1v24h-5.08Z" transform="translate(-11.92 -11.6)"/><path class="cls-2" d="M383.63,38.14h21.24v4.55H388.64v7.38H403v4.55H388.64v7.67h16.44v4.55H383.63Z" transform="translate(-11.92 -11.6)"/><path class="cls-2" d="M411.1,38.14h10.7A17.1,17.1,0,0,1,428,39.22a14.55,14.55,0,0,1,4.83,3A13.27,13.27,0,0,1,436,46.77a14.19,14.19,0,0,1,1.11,5.64v.08A14.39,14.39,0,0,1,436,58.15a13.35,13.35,0,0,1-3.14,4.55,14.9,14.9,0,0,1-4.83,3,16.69,16.69,0,0,1-6.18,1.11H411.1Zm10.66,24.15a11.17,11.17,0,0,0,4.1-.72,9,9,0,0,0,3.14-2,9.18,9.18,0,0,0,2-3.09,10.32,10.32,0,0,0,.72-3.89v-.08a10.46,10.46,0,0,0-.72-3.91,8.91,8.91,0,0,0-5.15-5.15,11,11,0,0,0-4.1-.74h-5.65v19.6Z" transform="translate(-11.92 -11.6)"/><path class="cls-2" d="M225.36,90.93H230l12.63,28.91h-5.33l-2.91-6.93H220.85l-2.95,6.93h-5.17Zm7.21,17.51-5-11.48-4.92,11.48Z" transform="translate(-11.92 -11.6)"/><path class="cls-2" d="M257.67,120.25a18.13,18.13,0,0,1-6.36-1.13,17.57,17.57,0,0,1-5.62-3.46l3-3.61a17.53,17.53,0,0,0,4.22,2.76,11.53,11.53,0,0,0,4.84,1,6.23,6.23,0,0,0,3.71-1,3,3,0,0,0,1.37-2.62v-.08a3.5,3.5,0,0,0-.26-1.38,3,3,0,0,0-1-1.12,7.66,7.66,0,0,0-2-1,28.6,28.6,0,0,0-3.27-.9,31,31,0,0,1-4.09-1.21,11.2,11.2,0,0,1-3-1.64,6.26,6.26,0,0,1-1.85-2.36,7.93,7.93,0,0,1-.64-3.36v-.08a7.71,7.71,0,0,1,.73-3.38,7.89,7.89,0,0,1,2-2.63,9.59,9.59,0,0,1,3.09-1.7,12.09,12.09,0,0,1,3.93-.61,16.35,16.35,0,0,1,5.68.92A16.82,16.82,0,0,1,267,94.34l-2.7,3.81a17.09,17.09,0,0,0-3.9-2.19,10.44,10.44,0,0,0-3.89-.76,5.37,5.37,0,0,0-3.45,1,3,3,0,0,0-1.23,2.42v.08a3.56,3.56,0,0,0,.29,1.46,2.8,2.8,0,0,0,1,1.14,8.56,8.56,0,0,0,2.09,1c.89.3,2,.61,3.4.94a32.71,32.71,0,0,1,4,1.27,10.09,10.09,0,0,1,2.9,1.7,6.73,6.73,0,0,1,1.75,2.34,7.49,7.49,0,0,1,.6,3.1v.08a8.42,8.42,0,0,1-.76,3.61A7.8,7.8,0,0,1,265,118a9.18,9.18,0,0,1-3.23,1.68A13.83,13.83,0,0,1,257.67,120.25Z" transform="translate(-11.92 -11.6)"/><path class="cls-2" d="M287.19,120.33a14.38,14.38,0,0,1-13.53-9,15.06,15.06,0,0,1-1.11-5.78v-.08a15.1,15.1,0,0,1,1.09-5.76,14.45,14.45,0,0,1,7.77-7.92,14.87,14.87,0,0,1,6-1.16A18.09,18.09,0,0,1,291,91a14.34,14.34,0,0,1,3,.93,13.23,13.23,0,0,1,2.5,1.41,19.74,19.74,0,0,1,2.17,1.8l-3.23,3.74a16.37,16.37,0,0,0-3.65-2.59,9.61,9.61,0,0,0-4.39-1,8.85,8.85,0,0,0-3.79.8,9.51,9.51,0,0,0-3,2.17,9.84,9.84,0,0,0-2,3.22,10.93,10.93,0,0,0-.7,3.94v.08a11.06,11.06,0,0,0,.7,4,9.92,9.92,0,0,0,2,3.26,9.44,9.44,0,0,0,3,2.2,9,9,0,0,0,3.79.8,9.47,9.47,0,0,0,4.51-1,17.92,17.92,0,0,0,3.73-2.72l3.24,3.28a19,19,0,0,1-2.32,2.11,15.9,15.9,0,0,1-2.6,1.6,13.17,13.17,0,0,1-3.05,1A18.08,18.08,0,0,1,287.19,120.33Z" transform="translate(-11.92 -11.6)"/><path class="cls-2" d="M304.08,91.14h21.24v4.55H309.08v7.38h14.39v4.55H309.08v7.67h16.44v4.55H304.08Z" transform="translate(-11.92 -11.6)"/><path class="cls-2" d="M331.55,91.14h4.66L351.56,111V91.14h5v28.7h-4.22L336.55,99.42v20.42h-5Z" transform="translate(-11.92 -11.6)"/><path class="cls-2" d="M371,95.81h-9.1V91.14h23.28v4.67h-9.1v24H371Z" transform="translate(-11.92 -11.6)"/></g></svg>