<svg height="27" viewBox="0 0 120 27" width="120" xmlns="http://www.w3.org/2000/svg">
  <g style="fill: currentColor">
    <path d="m36.3272727 17.4340909h4.2272728v1.1113636h-5.55v-9.7704545h1.3227272zm14.4340909-8.6590909v1.07727273h-4.6909091v3.24545457h3.7977273v1.0363636h-3.7977273v3.3340909h4.6909091v1.0772727h-6.0204545v-9.7704545zm12.6681819 9.7704545h-1.0227273c-.1181824 0-.213636-.0295451-.2863637-.0886363-.0727276-.0590912-.1272725-.1340905-.1636363-.225l-.9136364-2.3590909h-4.3840909l-.9136364 2.3590909c-.0318183.0818186-.0863632.1545451-.1636363.2181818s-.1727267.0954545-.2863637.0954545h-1.0227272l3.9068182-9.7704545h1.3431818zm-6.4022728-3.6272727h3.6477273l-1.5340909-3.975c-.1000005-.2454558-.1977268-.5522709-.2931818-.9204545-.0500003.1863645-.0988634.3579537-.1465909.5147727s-.094318.2943176-.1397728.4125zm11.8159091-.45v4.0772727h-1.3159091v-9.7704545h2.7613637c.6181849 0 1.1522704.06249937 1.6022727.1875.4500022.12500062.8215894.30568064 1.1147727.54204545.2931833.23636482.5102266.52158925.6511364.85568185s.2113636.7079524.2113636 1.1215909c0 .3454563-.0545449.6681803-.1636363.9681818-.1090915.3000015-.2670445.569317-.4738637.8079545-.2068192.2386376-.4590894.4420447-.7568182.6102273-.2977287.1681827-.6352253.2954541-1.0125.3818182.1636372.095455.3090903.23409.4363637.4159091l2.85 3.8795454h-1.1727273c-.2409103 0-.4181813-.0931808-.5318182-.2795454l-2.5363636-3.4909091c-.0772731-.1090915-.1613632-.1874998-.2522727-.2352273-.0909096-.0477275-.2272728-.0715909-.409091-.0715909zm0-.9613636h1.3840909c.3863656 0 .7261349-.0465905 1.0193182-.1397727.2931833-.0931823.5386354-.2249992.7363636-.3954546.1977283-.1704554.3465905-.3738624.446591-.6102273.1000005-.2363648.15-.4977258.15-.7840909 0-.5818211-.1920436-1.020453-.5761364-1.3159091-.3840928-.29545599-.955678-.44318178-1.7147727-.44318178h-1.4454546zm10.7386364-4.7318182c.1181824 0 .2056815.01477258.2625.04431818.0568184.0295456.1215905.08977227.1943182.18068182l5.6590909 7.3636364c-.0136365-.1181824-.0227273-.232954-.0272728-.3443182-.0045454-.1113642-.0068181-.2193177-.0068181-.3238637v-6.9204545h1.1590909v9.7704545h-.6681818c-.104546 0-.1920451-.0181816-.2625-.0545454s-.1397724-.0977269-.2079546-.1840909l-5.6522727-7.3568182c.0090909.1136369.015909.2249995.0204545.3340909.0045455.1090915.0068182.2090905.0068182.3v6.9613636h-1.1590909v-9.7704545zm13.9227273 9.7704545h-1.3227273v-9.7704545h1.3227273zm6.0272727-9.7704545c.1181824 0 .2056815.01477258.2625.04431818.0568184.0295456.1215905.08977227.1943182.18068182l5.6590906 7.3636364c-.013636-.1181824-.022727-.232954-.027272-.3443182-.004546-.1113642-.006819-.2193177-.006819-.3238637v-6.9204545h1.159091v9.7704545h-.668182c-.104546 0-.192045-.0181816-.2625-.0545454-.070454-.0363638-.139772-.0977269-.207954-.1840909l-5.6522728-7.3568182c.0090909.1136369.0159091.2249995.0204548.3340909.004545.1090915.006818.2090905.006818.3v6.9613636h-1.159091v-9.7704545zm16.7113638 8.8090909c.263637 0 .505681-.0124999.726136-.0375.220456-.0250001.428408-.0624997.623864-.1125.195455-.0500002.379544-.1102269.552273-.1806818.172728-.0704549.345453-.1511359.518181-.2420455v-2.1545454h-1.513636c-.086364 0-.155682-.0249998-.207955-.075-.052273-.0500003-.078409-.1113633-.078409-.1840909v-.75h3v3.75c-.245455.1772736-.501135.3318175-.767045.4636363-.265911.1318189-.549999.242045-.852273.3306819-.302274.0886368-.626134.1545452-.971591.1977272-.345456.0431821-.720452.0647728-1.125.0647728-.709094 0-1.359088-.1215897-1.95-.3647728-.590912-.243183-1.099998-.5840887-1.527272-1.0227272-.427275-.4386386-.760227-.9647697-.998864-1.5784091-.238638-.6136395-.357955-1.2886327-.357955-2.025 0-.7454583.117045-1.424997.351137-2.0386364s.568179-1.1397705 1.002272-1.5784091c.434094-.43863855.959088-.77840788 1.575-1.01931817.615913-.2409103 1.305678-.36136364 2.069319-.36136364.386365 0 .745453.02840881 1.077272.08522727.33182.05681847.639772.13863583.923864.24545455.284092.10681871.54659.23636287.7875.38863636s.465908.32386268.675.51477273l-.375.6c-.077273.1227279-.177272.1840909-.3.1840909-.072728 0-.152272-.0249997-.238636-.075-.113637-.0636367-.240909-.1409086-.381819-.2318182-.140909-.0909095-.312499-.1784086-.514772-.2625-.202274-.0840913-.440908-.1556815-.715909-.2147727-.275002-.0590912-.601135-.08863636-.978409-.08863636-.550003 0-1.047726.08977183-1.493182.26931816-.445457.1795464-.824999.436362-1.138637.7704546-.313638.3340925-.554544.738634-.722727 1.2136363-.168183.4750024-.252273 1.0079516-.252273 1.5988637 0 .6181849.087499 1.1693157.2625 1.6534091.175001.4840933.42159.8943165.739773 1.2306818s.695452.5931809 1.131818.7704545.918179.2659091 1.445455.2659091z"/><path d="m1.90909091 0h22.36363639c1.0543618 0 1.9090909.85472911 1.9090909 1.90909091v22.36363639c0 1.0543618-.8547291 1.9090909-1.9090909 1.9090909h-22.36363639c-1.0543618 0-1.90909091-.8547291-1.90909091-1.9090909v-22.36363639c0-1.0543618.85472911-1.90909091 1.90909091-1.90909091zm1.90909091 22.3636364h3.81818182v-12.54545458h-3.81818182zm4.36363636-16.63636367c0-1.35545455-1.09909091-2.45454546-2.45454545-2.45454546-1.35545455 0-2.45454546 1.09909091-2.45454546 2.45454546 0 1.35545454 1.09909091 2.45454545 2.45454546 2.45454545 1.35545454 0 2.45454545-1.09909091 2.45454545-2.45454545zm2.18181822 4.09090909v12.54545458h3.8181818v-6.0769091c0-2.0367273.75-3.3321818 2.5527273-3.3321818 1.2998181 0 1.810909 1.2016363 1.810909 3.3321818v6.0769091h3.8181819v-6.9289091c0-3.7412728-.8950909-5.78018185-4.6663637-5.78018185-1.9674545 0-3.2770909.92072725-3.7881818 1.94509095v-1.78145458z" fill="#0073b1" fill-rule="evenodd"/>
  </g>
</svg>
